<svg id="Calque_1" data-name="Calque 1" xmlns="http://www.w3.org/2000/svg" viewBox="0 0 765.76 517.45"><defs><style>.cls-1{fill:#b99ecc;}.cls-2{fill:#f0bf4a;}.cls-3{fill:#f4ddb0;}.cls-4{fill:none;stroke:#f0bf4a;stroke-miterlimit:10;}</style></defs><title>background</title><path class="cls-1" d="M520.82,338.76a13.32,13.32,0,0,1-10.56-17.69c1.51-4.43,3.3-8.79,4.51-13.31a73.43,73.43,0,0,0,2.12-26.29c-.32-3.31-.92-6.67.41-9.94,2.08-5.09,5.77-8.3,11.29-8.7,5.23-.38,9.62,1.62,12.39,6.29,1.29,2.18,2.29,4.54,3.39,6.83,3,6.22,8.06,10.37,13.45,14.34a31.92,31.92,0,0,1,7,6.52c4.73,6.46,2.45,16-4.59,20a36.55,36.55,0,0,1-7.33,3.23c-7.51,2.34-13.82,6.27-18.66,12.59-2.48,3.25-5.67,5.73-10,6.08C523.1,338.83,522,338.76,520.82,338.76Z" transform="translate(90.67 -153.8)"/><path class="cls-1" d="M592.81,308.48c-5.91-1.25-11.31-3.11-15.64-7.46-5.59-5.63-4.3-12.66.65-17.64,4.45-4.5,10.1-5.48,16-4.54a32.45,32.45,0,0,1,18.62,9.54c4,4.18,5.25,9.39,3.05,13.54-2.09,4-5.84,5.5-9.9,6C601.36,308.43,597.07,308.32,592.81,308.48Z" transform="translate(90.67 -153.8)"/><path class="cls-1" d="M594.65,312.81a31.11,31.11,0,0,1,12.56,4.71c6.7,4.48,7.16,12.75.63,17.44-9.22,6.62-19.31,7.88-29.83,3.5-7-2.9-10.73-11.47-8.13-18,1.55-3.9,4.87-5.93,8.62-7.26C583.58,311.42,588.75,311.62,594.65,312.81Z" transform="translate(90.67 -153.8)"/><path class="cls-1" d="M557.64,333.24c7.18,2,14.83,5.72,20,13.3,2.66,3.94,2,8-1.61,11.08-3.9,3.35-8.58,4.56-13.52,5a28.47,28.47,0,0,1-18.44-4.27,20.74,20.74,0,0,1-5.16-4.68c-5.13-6.71-2.3-15.91,5.77-19.44C548.42,332.58,552.29,332.37,557.64,333.24Z" transform="translate(90.67 -153.8)"/><path class="cls-1" d="M570.72,249.61c6.77,1.18,12,3.19,16.24,7.11a17.12,17.12,0,0,1,3.26,4c2.5,4.38,1.34,8.73-3.66,11.78-8.34,5.1-17.37,7.29-27.1,4.73-7.46-2-12.47-9.29-11.18-16.36.87-4.69,4-7.58,8.22-9.44A26.62,26.62,0,0,1,570.72,249.61Z" transform="translate(90.67 -153.8)"/><path class="cls-1" d="M171.09,366a26.52,26.52,0,0,1-6.38-40.54c6.1-7.06,12.64-13.79,18.22-21.24a146,146,0,0,0,23.48-47c1.86-6.37,3.25-13,8.14-18.06,7.63-7.86,16.83-11.05,27.32-7.69,9.95,3.19,16.58,10.14,18.23,20.83.77,5,.86,10.09,1.18,15.15.85,13.68,7.21,25.14,14.22,36.48,3.32,5.38,6.53,11.2,8.07,17.25,3.94,15.45-7.35,31.36-23.38,33.62a73.37,73.37,0,0,1-15.95.51c-15.61-1.25-30.19,1.32-43.83,9.41-7,4.15-14.75,6.36-23,3.79C175.23,367.81,173.19,366.82,171.09,366Z" transform="translate(90.67 -153.8)"/><path class="cls-1" d="M326.64,363.52c-10-6.7-18.6-14.14-23.36-25.41-6.15-14.57,1.46-26.59,14.3-32.13,11.59-5,22.75-2.62,32.93,3.51A64.75,64.75,0,0,1,377.84,341c4.36,10.72,2.73,21.25-4.42,27.3-6.81,5.75-14.9,5.8-22.76,3.7C342.48,369.78,334.63,366.39,326.64,363.52Z" transform="translate(90.67 -153.8)"/><path class="cls-1" d="M326.82,372.89a62.11,62.11,0,0,1,19.72,18c9,13.26,3.74,28.89-11.81,32.7-22,5.39-41.55.22-57.73-15.7-10.73-10.55-11.3-29.17-1.67-39.28,5.77-6,13.41-7.34,21.35-7C307.38,362.1,316.8,366.32,326.82,372.89Z" transform="translate(90.67 -153.8)"/><path class="cls-1" d="M243.23,383.14c11.76,9.09,23.16,21.59,27,39.44,2,9.25-2.24,16.23-11.19,19.28-9.7,3.29-19.25,2-28.71-.84-12.61-3.83-23.25-10.74-30.9-21.58A41.41,41.41,0,0,1,193.41,407c-4.5-16.21,7.56-31.12,25.11-31.64C226.68,375.07,234,377.56,243.23,383.14Z" transform="translate(90.67 -153.8)"/><path class="cls-1" d="M329.56,238.31c11.64,7.22,19.76,14.79,24.74,25.21a33.71,33.71,0,0,1,3,9.89c1.37,9.94-4,17.13-15.51,19-19.21,3.22-37.53.56-53.61-11.42-12.31-9.17-16.14-26.43-8.49-38.53,5.08-8,13.07-11,22.19-11.34A53.06,53.06,0,0,1,329.56,238.31Z" transform="translate(90.67 -153.8)"/><path class="cls-2" d="M423.63,553.61a17.14,17.14,0,0,1-16.93-20.42c1.06-5.93,2.47-11.83,3.12-17.81a94.54,94.54,0,0,0-2.47-33.86c-1.07-4.15-2.49-8.31-1.44-12.72,1.65-6.88,5.71-11.7,12.64-13.29,6.58-1.51,12.56.16,17,5.56,2.07,2.52,3.8,5.32,5.65,8,5,7.33,12.3,11.6,19.93,15.58a41.49,41.49,0,0,1,10.18,6.92c7.29,7.29,6.27,19.85-1.89,26.39a47.71,47.71,0,0,1-8.7,5.55c-9.08,4.46-16.33,10.69-21.25,19.69-2.51,4.61-6.09,8.4-11.54,9.71C426.53,553.26,425.07,553.39,423.63,553.61Z" transform="translate(90.67 -153.8)"/><path class="cls-2" d="M509.23,500.93c-7.76-.43-15-1.73-21.36-6.42-8.22-6.06-8-15.25-2.66-22.56,4.79-6.6,11.78-9,19.45-8.92a41.84,41.84,0,0,1,25.57,8.47c6,4.51,8.53,10.9,6.55,16.62-1.88,5.44-6.36,8.14-11.42,9.57C520.1,499.18,514.62,499.88,509.23,500.93Z" transform="translate(90.67 -153.8)"/><path class="cls-2" d="M512.42,506.07a40.12,40.12,0,0,1,16.91,3.51c9.41,4.39,11.61,14.82,4.23,22.07-10.42,10.24-23,13.83-37.25,10.33-9.44-2.32-15.9-12.48-13.89-21.28,1.21-5.26,5-8.5,9.55-10.93C498.07,506.49,504.69,505.73,512.42,506.07Z" transform="translate(90.67 -153.8)"/><path class="cls-2" d="M469.37,539.35c9.53,1.17,20,4.35,28,13,4.17,4.47,4.11,9.76.14,14.4-4.3,5-10,7.49-16.22,9-8.27,2-16.47,1.7-24.29-1.8a26.63,26.63,0,0,1-7.49-4.94c-7.84-7.52-6.06-19.78,3.52-25.86C457.51,540.32,462.39,539.29,469.37,539.35Z" transform="translate(90.67 -153.8)"/><path class="cls-2" d="M469.54,430.4c8.85.17,15.86,1.69,22.06,5.84a22.06,22.06,0,0,1,4.94,4.5c4,5.07,3.42,10.84-2.33,15.71-9.62,8.12-20.66,12.69-33.55,11.34-9.87-1-17.69-9.36-17.43-18.61.17-6.14,3.62-10.43,8.58-13.62A34.33,34.33,0,0,1,469.54,430.4Z" transform="translate(90.67 -153.8)"/><path class="cls-3" d="M84.62,577.89c-9.08,5-20.7-.1-24.77-11-2.23-6-4.14-12.12-6.74-18a111.75,111.75,0,0,0-19.8-30.25c-3.06-3.35-6.41-6.54-7.85-11.13C23.22,500.34,24.07,494,29,489.27c4.68-4.47,10.52-5.71,17-2.77,3.05,1.37,6,3.16,8.91,4.8,8,4.47,16.3,5,24.73,5.16a39.35,39.35,0,0,1,12.08,1.67c9.88,3.36,15.61,15.48,12.26,25.36a45,45,0,0,1-4.32,9.2,46.4,46.4,0,0,0-7.34,28.17c.32,5.45-.66,10.63-4.51,14.38C86.85,576.21,85.7,577,84.62,577.89Z" transform="translate(90.67 -153.8)"/><path class="cls-3" d="M128.16,489.11c-6.67,3.22-13.36,5.39-21.11,4-10-1.79-14.61-10.43-14-19.69.52-8.35,5.09-13.8,11.49-17.34A37.24,37.24,0,0,1,130.2,452c7.32,1.41,12.8,6.14,14.15,12.36,1.29,5.93-1,10.52-4.47,14.2C136.28,482.42,132.09,485.62,128.16,489.11Z" transform="translate(90.67 -153.8)"/><path class="cls-3" d="M133.51,492.39a35,35,0,0,1,15.9-4.63c10.11-.32,17.41,8.33,15.08,18.5-3.3,14.35-11.88,23.55-25.56,27-9.06,2.25-19.75-4.16-22.69-13.26-1.75-5.44-.27-10.23,2.21-14.59C121.8,499.47,126.9,495.67,133.51,492.39Z" transform="translate(90.67 -153.8)"/><path class="cls-3" d="M115.17,543.33c8.53-3.36,18.89-5.29,30.1-1,5.81,2.2,8.53,7.13,7.66,13.29-.94,6.67-4.4,11.62-8.76,15.92-5.81,5.74-12.79,9.26-21.13,9.66a25.77,25.77,0,0,1-8.81-1.09c-10.46-3.32-15.4-15.52-10.63-25.62C105.82,549.77,109.34,546.53,115.17,543.33Z" transform="translate(90.67 -153.8)"/><path class="cls-3" d="M58.22,442.2c7.44-4,14.07-5.82,21.4-4.87a22.31,22.31,0,0,1,6.46,1.87c6,2.82,8.52,8.47,6.29,15.66-3.73,12-10.52,21.41-21.94,26.16-8.74,3.65-19.61-.43-24.24-9.12-3.07-5.78-2.45-11.37,0-16.64A30.2,30.2,0,0,1,58.22,442.2Z" transform="translate(90.67 -153.8)"/><path class="cls-2" d="M15.39,333.69a17.26,17.26,0,0,1-23.65-12.4c-1.32-5.93-2.3-12-4-17.76A95.07,95.07,0,0,0-27.73,273c-2.6-3.44-5.53-6.74-6.27-11.25-1.14-7,.76-13.09,6.58-17.26,5.53-4,11.73-4.72,18-1.44,2.9,1.54,5.6,3.47,8.36,5.26,7.48,4.87,15.93,6,24.57,6.74a41.69,41.69,0,0,1,12.14,2.47c9.6,3.94,13.53,16,8.49,25.25a47.93,47.93,0,0,1-5.92,8.53c-6.71,7.67-11,16.28-12.09,26.55-.55,5.26-2.4,10.16-7,13.49C18,332.24,16.64,332.92,15.39,333.69Z" transform="translate(90.67 -153.8)"/><path class="cls-2" d="M74.45,251.5c-7.37,2.62-14.59,4.22-22.33,2.34-10-2.44-13.32-11.08-11.23-19.93,1.89-8,7.46-12.9,14.61-15.84a42.07,42.07,0,0,1,27-2.06c7.29,1.88,12.15,6.82,12.54,12.9.36,5.79-2.75,10-6.9,13.32C83.87,245.66,79.05,248.44,74.45,251.5Z" transform="translate(90.67 -153.8)"/><path class="cls-2" d="M79.42,255a40.45,40.45,0,0,1,17.07-3.3c10.44.42,16.54,9.25,12.5,18.86-5.7,13.55-16,21.78-30.6,24.06-9.67,1.5-19.62-5.42-21.16-14.37-.92-5.36,1.37-9.86,4.62-13.87C66.24,261,72.1,257.72,79.42,255Z" transform="translate(90.67 -153.8)"/><path class="cls-2" d="M52.35,302.67c9.3-2.61,20.25-3.72,31.08,1.18,5.61,2.55,7.6,7.48,5.72,13.33-2,6.35-6.4,10.85-11.57,14.67-6.89,5.1-14.64,8-23.26,7.77a27.31,27.31,0,0,1-8.87-1.69c-10.21-3.94-13.32-16-6.78-25.39C41.71,308.18,45.84,305.33,52.35,302.67Z" transform="translate(90.67 -153.8)"/><path class="cls-2" d="M10.2,201.39c8.28-3.27,15.39-4.58,22.76-3.13a22,22,0,0,1,6.34,2.26c5.72,3.14,7.38,8.74,3.93,15.49C37.45,227.3,29,235.83,16.47,239.58,6.9,242.45-3.6,237.76-6.95,229.06c-2.23-5.77-.69-11.1,2.68-16A34.63,34.63,0,0,1,10.2,201.39Z" transform="translate(90.67 -153.8)"/><path class="cls-1" d="M251.8,601.05a8.31,8.31,0,0,1-12.36,3.5c-2.42-1.63-4.76-3.41-7.28-4.86a45.62,45.62,0,0,0-15.49-5.53c-2-.34-4.16-.52-5.91-1.85-2.73-2.08-4.07-4.82-3.42-8.2a7.82,7.82,0,0,1,5.79-6.45c1.52-.42,3.1-.64,4.66-.93,4.22-.78,7.54-3.19,10.8-5.79a20.09,20.09,0,0,1,5.06-3.15,8.7,8.7,0,0,1,11.32,6,22.89,22.89,0,0,1,.76,4.93A22.53,22.53,0,0,0,250.3,592a8.7,8.7,0,0,1,2,7C252.21,599.69,252,600.36,251.8,601.05Z" transform="translate(90.67 -153.8)"/><path class="cls-1" d="M245.2,552.82c-1.71,3.35-3.7,6.3-7,8.2-4.29,2.46-8.31.55-10.52-3.23-2-3.41-1.67-7-.14-10.36a20.19,20.19,0,0,1,8.75-9.67c3.16-1.76,6.5-1.65,8.64.34s2.37,4.41,2,6.94S245.79,550.22,245.2,552.82Z" transform="translate(90.67 -153.8)"/><path class="cls-1" d="M248.1,552.41A19.52,19.52,0,0,1,253,545.6c3.78-3.31,8.83-2.24,10.6,2.44a18.21,18.21,0,0,1-2.71,18.53c-2.88,3.73-8.64,4.6-12.14,2-2.1-1.56-2.79-3.89-3-6.37C245.48,558.85,246.44,555.77,248.1,552.41Z" transform="translate(90.67 -153.8)"/><path class="cls-1" d="M254.43,578c2.38-4,5.83-8,11.23-9.88a4.86,4.86,0,0,1,6.41,2.76,14.24,14.24,0,0,1,.82,8.94,17.85,17.85,0,0,1-5.54,10.42,13,13,0,0,1-3.66,2.34c-4.87,2-9.95-1.18-10.77-6.61C252.54,583.44,253,581.07,254.43,578Z" transform="translate(90.67 -153.8)"/><path class="cls-1" d="M206.19,556.61c1.8-3.89,3.85-6.7,6.9-8.64a10.72,10.72,0,0,1,3-1.3c3-.8,5.47.6,6.5,4.1,1.72,5.85,1.59,11.64-1.53,17.08-2.39,4.17-7.61,6-11.65,4.09-2.69-1.28-3.92-3.65-4.36-6.47A16.59,16.59,0,0,1,206.19,556.61Z" transform="translate(90.67 -153.8)"/><path class="cls-2" d="M-64.24,617.35a8.29,8.29,0,0,1-6-11.34c1.08-2.71,2.33-5.37,3.22-8.14a45.44,45.44,0,0,0,2.15-16.3c-.1-2.08-.36-4.19.57-6.18,1.45-3.1,3.85-5,7.3-5.06a7.81,7.81,0,0,1,7.52,4.3c.73,1.4,1.28,2.9,1.89,4.37,1.65,4,4.7,6.7,7.93,9.34a20,20,0,0,1,4.15,4.28A8.72,8.72,0,0,1-39,605a23.78,23.78,0,0,1-4.67,1.78,22.52,22.52,0,0,0-12,7.25,8.68,8.68,0,0,1-6.42,3.47C-62.83,617.47-63.53,617.39-64.24,617.35Z" transform="translate(90.67 -153.8)"/><path class="cls-2" d="M-18.47,600.76c-3.64-1-6.94-2.28-9.5-5.13-3.31-3.68-2.28-8,.95-11,2.92-2.65,6.46-3.09,10.1-2.32a20.27,20.27,0,0,1,11.29,6.53c2.39,2.72,3,6,1.48,8.52s-3.81,3.24-6.35,3.42S-15.81,600.8-18.47,600.76Z" transform="translate(90.67 -153.8)"/><path class="cls-2" d="M-17.46,603.52a19.27,19.27,0,0,1,7.67,3.32c4,3,4.06,8.17-.16,10.88A18.21,18.21,0,0,1-28.63,619c-4.24-2-6.31-7.48-4.5-11.46,1.09-2.37,3.22-3.53,5.6-4.24C-24.31,602.31-21.09,602.59-17.46,603.52Z" transform="translate(90.67 -153.8)"/><path class="cls-2" d="M-41.14,615.08c4.4,1.49,9,4,12,8.91a4.85,4.85,0,0,1-1.35,6.84A14.3,14.3,0,0,1-39,633.51a17.81,17.81,0,0,1-11.34-3.23,13,13,0,0,1-3.07-3.08c-3-4.34-.93-10,4.21-11.92C-46.86,614.38-44.45,614.37-41.14,615.08Z" transform="translate(90.67 -153.8)"/><path class="cls-2" d="M-30.38,563.42c4.18,1,7.36,2.36,9.89,4.94a10.45,10.45,0,0,1,1.9,2.62c1.42,2.8.56,5.47-2.64,7.21-5.36,2.92-11,4-17,2.09-4.58-1.45-7.47-6.17-6.44-10.53.69-2.89,2.74-4.59,5.41-5.62A16.71,16.71,0,0,1-30.38,563.42Z" transform="translate(90.67 -153.8)"/><path class="cls-1" d="M-50.52,436c-5.11,2.09-11-1.54-12.57-7.79-.86-3.43-1.54-6.9-2.61-10.27A64.36,64.36,0,0,0-74.57,400c-1.45-2.05-3.06-4-3.57-6.62-.81-4.06,0-7.46,2.87-9.67,2.73-2.1,5.91-2.35,9.22-.29,1.54,1,3,2.15,4.47,3.26,4,3,8.39,3.9,12.87,4.59A21.13,21.13,0,0,1-42.38,393c5.07,2.54,7.46,9.56,5.14,14.69a23.45,23.45,0,0,1-2.8,4.7,25.23,25.23,0,0,0-5.44,14.82c-.13,3-.93,5.74-3.18,7.5C-49.25,435.2-49.9,435.55-50.52,436Z" transform="translate(90.67 -153.8)"/><path class="cls-1" d="M-22.53,390.74c-3.72,1.27-7.4,2-11.44.67-5.23-1.7-7.2-6.73-6.39-11.74a10.73,10.73,0,0,1,7.06-8.61,19.36,19.36,0,0,1,13.88-.37c3.81,1.29,6.47,4.26,6.85,7.75a8.19,8.19,0,0,1-3.16,7.41C-17.85,387.68-20.25,389.12-22.53,390.74Z" transform="translate(90.67 -153.8)"/><path class="cls-1" d="M-19.86,392.91a18,18,0,0,1,8.7-1.38,8.31,8.31,0,0,1,7,11.16c-2.53,7.58-7.6,12-15.06,12.84-4.94.57-10.28-3.69-11.34-8.85a9.62,9.62,0,0,1,2-7.79C-26.48,395.92-23.55,394.22-19.86,392.91Z" transform="translate(90.67 -153.8)"/><path class="cls-1" d="M-32.4,419.33c4.72-1.22,10.34-1.52,16.07,1.61A6.61,6.61,0,0,1-13,428.73a14.51,14.51,0,0,1-5.53,8,16.21,16.21,0,0,1-11.76,3.74,13.72,13.72,0,0,1-4.63-1.23,10.5,10.5,0,0,1-4.26-14.72C-37.72,422.16-35.67,420.66-32.4,419.33Z" transform="translate(90.67 -153.8)"/><path class="cls-1" d="M-57.16,360.17c4.17-1.63,7.8-2.16,11.64-1.11a11.81,11.81,0,0,1,3.34,1.48c3,2,4.07,5.22,2.49,9-2.64,6.27-6.76,10.9-13.1,12.67-4.84,1.35-10.4-1.65-12.39-6.72a9.88,9.88,0,0,1,.91-9.06A15.53,15.53,0,0,1-57.16,360.17Z" transform="translate(90.67 -153.8)"/><path class="cls-3" d="M471.09,248.1a8.3,8.3,0,0,1-9,9.14c-2.91-.22-5.82-.62-8.73-.64a45.81,45.81,0,0,0-16.2,2.83c-1.95.71-3.88,1.6-6.06,1.3-3.39-.46-5.91-2.18-7-5.45a7.8,7.8,0,0,1,1.85-8.46c1.12-1.12,2.38-2.09,3.6-3.11,3.29-2.76,5-6.49,6.54-10.36a20.14,20.14,0,0,1,2.85-5.24,8.71,8.71,0,0,1,12.8-.36,22.94,22.94,0,0,1,3.1,3.92A22.5,22.5,0,0,0,465.31,241a8.7,8.7,0,0,1,5.24,5.09C470.78,246.72,470.91,247.42,471.09,248.1Z" transform="translate(90.67 -153.8)"/><path class="cls-3" d="M441.56,209.39c.17,3.76-.1,7.31-2.06,10.61-2.52,4.25-7,4.57-10.74,2.37-3.41-2-4.89-5.24-5.24-9a20.23,20.23,0,0,1,2.85-12.72c1.88-3.09,4.84-4.64,7.69-4s4.23,2.67,5.16,5S440.8,206.85,441.56,209.39Z" transform="translate(90.67 -153.8)"/><path class="cls-3" d="M443.89,207.61a19.33,19.33,0,0,1,.87-8.32c1.66-4.74,6.58-6.31,10.43-3.1A18.2,18.2,0,0,1,462,213.64c-.66,4.66-5.25,8.26-9.58,7.72-2.6-.33-4.34-2-5.73-4.07C444.78,214.51,444.09,211.35,443.89,207.61Z" transform="translate(90.67 -153.8)"/><path class="cls-3" d="M462,226.75c.11-4.65,1.13-9.85,4.91-14.14a4.85,4.85,0,0,1,6.93-.76,14.37,14.37,0,0,1,5.13,7.38,17.8,17.8,0,0,1,.31,11.79,13.28,13.28,0,0,1-2,3.85c-3.24,4.14-9.23,3.87-12.63-.45C463.05,232.41,462.31,230.11,462,226.75Z" transform="translate(90.67 -153.8)"/><path class="cls-3" d="M409.49,231.93c-.34-4.27.05-7.73,1.75-10.92a10.93,10.93,0,0,1,1.93-2.59c2.25-2.19,5.06-2.17,7.68.36,4.38,4.24,7.12,9.35,7.09,15.62,0,4.81-3.65,9-8.12,9.3-3,.21-5.21-1.24-7-3.48A16.67,16.67,0,0,1,409.49,231.93Z" transform="translate(90.67 -153.8)"/><path class="cls-3" d="M595.29,575.5a8.3,8.3,0,0,1,12.4-3.35c2.4,1.66,4.72,3.47,7.22,5a45.66,45.66,0,0,0,15.42,5.72c2,.36,4.16.57,5.89,1.92,2.71,2.11,4,4.87,3.32,8.24a7.82,7.82,0,0,1-5.87,6.38c-1.52.41-3.11.61-4.67.87-4.23.73-7.58,3.1-10.87,5.66A20,20,0,0,1,613,609a8.71,8.71,0,0,1-11.25-6.14,22.9,22.9,0,0,1-.7-4.94,22.52,22.52,0,0,0-4.41-13.32,8.73,8.73,0,0,1-1.95-7C594.86,576.85,595.1,576.18,595.29,575.5Z" transform="translate(90.67 -153.8)"/><path class="cls-3" d="M601.3,623.81c1.75-3.33,3.78-6.26,7.12-8.12,4.32-2.41,8.32-.45,10.48,3.36,1.94,3.44,1.58,7,0,10.36a20.28,20.28,0,0,1-8.87,9.57c-3.19,1.72-6.52,1.56-8.64-.46s-2.31-4.43-1.92-6.95S600.68,626.39,601.3,623.81Z" transform="translate(90.67 -153.8)"/><path class="cls-3" d="M598.39,624.18a19.38,19.38,0,0,1-4.94,6.75c-3.82,3.26-8.86,2.14-10.58-2.57a18.24,18.24,0,0,1,2.94-18.49c2.92-3.7,8.7-4.5,12.17-1.85,2.07,1.59,2.73,3.93,2.9,6.41C601.1,617.77,600.1,620.85,598.39,624.18Z" transform="translate(90.67 -153.8)"/><path class="cls-3" d="M592.38,598.52c-2.43,4-5.93,7.94-11.35,9.75a4.87,4.87,0,0,1-6.38-2.84,14.35,14.35,0,0,1-.71-9,17.78,17.78,0,0,1,5.68-10.34,12.8,12.8,0,0,1,3.68-2.3c4.89-2,9.93,1.3,10.69,6.74C594.34,593.1,593.81,595.46,592.38,598.52Z" transform="translate(90.67 -153.8)"/><path class="cls-3" d="M640.36,620.5c-1.86,3.86-3.94,6.64-7,8.54a10.19,10.19,0,0,1-3,1.27c-3,.77-5.46-.67-6.45-4.18-1.65-5.87-1.44-11.65,1.75-17.06,2.43-4.14,7.67-5.92,11.7-3.94,2.67,1.31,3.87,3.69,4.27,6.52A16.63,16.63,0,0,1,640.36,620.5Z" transform="translate(90.67 -153.8)"/><path class="cls-2" d="M614.43,452.3A8.3,8.3,0,0,1,608.28,441c1.06-2.73,2.27-5.4,3.14-8.18a45.73,45.73,0,0,0,2-16.33c-.12-2.07-.41-4.17.5-6.17,1.42-3.12,3.8-5,7.24-5.15a7.83,7.83,0,0,1,7.57,4.22c.75,1.39,1.32,2.89,1.94,4.34,1.7,3.95,4.77,6.66,8,9.26a19.81,19.81,0,0,1,4.2,4.23,8.72,8.72,0,0,1-3.35,12.37,22.94,22.94,0,0,1-4.65,1.83,22.58,22.58,0,0,0-11.93,7.39,8.7,8.7,0,0,1-6.38,3.54C615.84,452.41,615.14,452.33,614.43,452.3Z" transform="translate(90.67 -153.8)"/><path class="cls-2" d="M660,435.21c-3.65-.93-7-2.21-9.56-5-3.34-3.65-2.37-8,.84-11,2.88-2.69,6.42-3.16,10.07-2.43a20.18,20.18,0,0,1,11.36,6.4c2.42,2.7,3,6,1.57,8.51s-3.77,3.28-6.31,3.49S662.67,435.21,660,435.21Z" transform="translate(90.67 -153.8)"/><path class="cls-2" d="M661.05,438a19.48,19.48,0,0,1,7.71,3.24c4.07,3,4.14,8.12,0,10.88a18.19,18.19,0,0,1-18.66,1.45c-4.27-2-6.4-7.41-4.63-11.4,1.06-2.39,3.18-3.57,5.55-4.31C654.19,436.81,657.41,437.07,661.05,438Z" transform="translate(90.67 -153.8)"/><path class="cls-2" d="M637.5,449.77c4.42,1.44,9.09,3.92,12.11,8.78a4.85,4.85,0,0,1-1.27,6.86,14.29,14.29,0,0,1-8.54,2.77,17.75,17.75,0,0,1-11.38-3.11,12.79,12.79,0,0,1-3.1-3c-3-4.3-1.05-10,4.07-12C631.77,449.13,634.19,449.1,637.5,449.77Z" transform="translate(90.67 -153.8)"/><path class="cls-2" d="M647.69,398c4.19.9,7.38,2.28,9.95,4.83a10.56,10.56,0,0,1,1.92,2.59c1.45,2.79.62,5.47-2.56,7.25-5.32,3-11,4.12-17,2.28-4.6-1.41-7.54-6.09-6.56-10.46.65-2.91,2.69-4.63,5.35-5.68A16.56,16.56,0,0,1,647.69,398Z" transform="translate(90.67 -153.8)"/><path class="cls-4" d="M-83.43,222.37a8.29,8.29,0,0,1-6.15-11.27c1.06-2.73,2.27-5.4,3.14-8.18a45.7,45.7,0,0,0,2-16.32c-.12-2.08-.41-4.18.5-6.18,1.42-3.12,3.8-5,7.24-5.15a7.83,7.83,0,0,1,7.57,4.22c.75,1.39,1.32,2.89,1.94,4.34,1.7,3.95,4.77,6.66,8,9.26a19.81,19.81,0,0,1,4.2,4.23,8.72,8.72,0,0,1-3.35,12.37A22.94,22.94,0,0,1-63,211.52a22.58,22.58,0,0,0-11.93,7.39,8.67,8.67,0,0,1-6.38,3.54C-82,222.48-82.72,222.4-83.43,222.37Z" transform="translate(90.67 -153.8)"/><path class="cls-4" d="M-37.85,205.28c-3.65-.93-7-2.21-9.56-5-3.34-3.65-2.37-8,.84-11,2.88-2.69,6.42-3.16,10.07-2.43a20.21,20.21,0,0,1,11.36,6.4c2.42,2.7,3.05,6,1.57,8.51s-3.77,3.28-6.31,3.49S-35.19,205.28-37.85,205.28Z" transform="translate(90.67 -153.8)"/><path class="cls-4" d="M-36.81,208a19.48,19.48,0,0,1,7.71,3.24c4.07,3,4.14,8.12,0,10.88a18.19,18.19,0,0,1-18.66,1.45c-4.27-2-6.4-7.41-4.63-11.4,1.06-2.39,3.18-3.57,5.55-4.31C-43.67,206.88-40.45,207.14-36.81,208Z" transform="translate(90.67 -153.8)"/><path class="cls-4" d="M-60.36,219.84c4.42,1.44,9.09,3.92,12.11,8.78a4.85,4.85,0,0,1-1.27,6.86,14.29,14.29,0,0,1-8.54,2.77,17.75,17.75,0,0,1-11.38-3.11,12.79,12.79,0,0,1-3.1-3c-3-4.3-1-10,4.07-12C-66.09,219.2-63.67,219.17-60.36,219.84Z" transform="translate(90.67 -153.8)"/><path class="cls-4" d="M-50.17,168.07c4.19.9,7.38,2.28,10,4.83a10.56,10.56,0,0,1,1.92,2.59c1.45,2.79.62,5.47-2.56,7.25-5.33,3-11,4.12-17,2.28-4.6-1.41-7.54-6.09-6.56-10.46.65-2.91,2.69-4.63,5.35-5.68A16.66,16.66,0,0,1-50.17,168.07Z" transform="translate(90.67 -153.8)"/><path class="cls-4" d="M144.48,208.87a8.3,8.3,0,0,1-6.15-11.28c1-2.72,2.27-5.39,3.14-8.17a45.75,45.75,0,0,0,2-16.33c-.12-2.07-.41-4.18.5-6.18,1.42-3.12,3.8-5,7.24-5.14a7.8,7.8,0,0,1,7.57,4.22c.75,1.39,1.32,2.88,1.94,4.34,1.69,3.94,4.77,6.65,8,9.26a20,20,0,0,1,4.2,4.23,8.73,8.73,0,0,1-3.35,12.37,23.53,23.53,0,0,1-4.65,1.83A22.5,22.5,0,0,0,153,205.4,8.71,8.71,0,0,1,146.6,209C145.89,209,145.18,208.9,144.48,208.87Z" transform="translate(90.67 -153.8)"/><path class="cls-4" d="M190.06,191.77c-3.65-.92-7-2.21-9.56-5-3.35-3.64-2.37-8,.83-11,2.89-2.69,6.43-3.17,10.08-2.43a20.26,20.26,0,0,1,11.36,6.39c2.42,2.7,3,6,1.57,8.52s-3.77,3.27-6.31,3.48S192.72,191.78,190.06,191.77Z" transform="translate(90.67 -153.8)"/><path class="cls-4" d="M191.1,194.52a19.2,19.2,0,0,1,7.71,3.24c4.06,3,4.14,8.12,0,10.88a18.21,18.21,0,0,1-18.66,1.45c-4.28-2-6.4-7.41-4.63-11.4,1.06-2.39,3.18-3.58,5.55-4.31C184.24,193.38,187.46,193.63,191.1,194.52Z" transform="translate(90.67 -153.8)"/><path class="cls-4" d="M167.55,206.34c4.42,1.44,9.09,3.92,12.11,8.77a4.85,4.85,0,0,1-1.27,6.86,14.32,14.32,0,0,1-8.54,2.78,17.75,17.75,0,0,1-11.38-3.11,12.79,12.79,0,0,1-3.1-3c-3-4.31-1.05-10,4.07-12C161.82,205.7,164.23,205.66,167.55,206.34Z" transform="translate(90.67 -153.8)"/><path class="cls-4" d="M177.74,154.57c4.19.9,7.38,2.27,9.94,4.82a10.65,10.65,0,0,1,1.93,2.6c1.45,2.78.62,5.47-2.56,7.25-5.33,3-11,4.11-17,2.28-4.6-1.41-7.54-6.09-6.56-10.47.65-2.9,2.69-4.62,5.34-5.68A16.59,16.59,0,0,1,177.74,154.57Z" transform="translate(90.67 -153.8)"/><path class="cls-4" d="M613,233.2a8.29,8.29,0,0,1-6.15-11.27c1.05-2.73,2.27-5.4,3.13-8.18a45.51,45.51,0,0,0,2-16.33c-.12-2.07-.41-4.17.5-6.17,1.42-3.12,3.8-5,7.24-5.15a7.8,7.8,0,0,1,7.57,4.22c.75,1.39,1.31,2.89,1.94,4.34,1.69,4,4.77,6.65,8,9.26a19.76,19.76,0,0,1,4.19,4.23A8.71,8.71,0,0,1,638,220.52a22.62,22.62,0,0,1-4.64,1.83,22.48,22.48,0,0,0-11.93,7.39,8.74,8.74,0,0,1-6.39,3.54C614.37,233.31,613.66,233.23,613,233.2Z" transform="translate(90.67 -153.8)"/><path class="cls-4" d="M658.54,216.11c-3.65-.93-7-2.21-9.56-5-3.35-3.65-2.37-8,.83-11,2.89-2.69,6.43-3.16,10.07-2.43a20.21,20.21,0,0,1,11.37,6.4c2.41,2.7,3,6,1.57,8.51s-3.78,3.28-6.32,3.49S661.19,216.11,658.54,216.11Z" transform="translate(90.67 -153.8)"/><path class="cls-4" d="M659.58,218.85a19.54,19.54,0,0,1,7.71,3.24c4.06,2.95,4.14,8.12,0,10.88a18.21,18.21,0,0,1-18.67,1.45c-4.27-2-6.4-7.41-4.62-11.4,1.06-2.39,3.18-3.58,5.55-4.31C652.71,217.71,655.93,218,659.58,218.85Z" transform="translate(90.67 -153.8)"/><path class="cls-4" d="M636,230.67c4.43,1.44,9.1,3.92,12.12,8.77a4.85,4.85,0,0,1-1.27,6.86,14.26,14.26,0,0,1-8.55,2.78A17.73,17.73,0,0,1,627,246a12.61,12.61,0,0,1-3.1-3c-3-4.3-1.05-10,4.07-12C630.3,230,632.71,230,636,230.67Z" transform="translate(90.67 -153.8)"/><path class="cls-4" d="M646.22,178.9c4.19.9,7.38,2.28,9.94,4.82a10.65,10.65,0,0,1,1.93,2.6c1.45,2.79.62,5.47-2.57,7.25-5.32,3-11,4.12-17,2.28-4.6-1.41-7.54-6.09-6.56-10.46.65-2.91,2.69-4.63,5.34-5.68A16.6,16.6,0,0,1,646.22,178.9Z" transform="translate(90.67 -153.8)"/><path class="cls-4" d="M356.69,625.52a8.3,8.3,0,0,1-6.15-11.27c1-2.73,2.27-5.4,3.14-8.18a45.73,45.73,0,0,0,2-16.33c-.12-2.07-.41-4.17.5-6.17,1.42-3.12,3.8-5,7.24-5.15a7.83,7.83,0,0,1,7.57,4.22c.75,1.39,1.32,2.89,1.94,4.34,1.69,3.95,4.77,6.65,8,9.26a20,20,0,0,1,4.2,4.23,8.72,8.72,0,0,1-3.35,12.37,22.94,22.94,0,0,1-4.65,1.83,22.58,22.58,0,0,0-11.93,7.39,8.7,8.7,0,0,1-6.38,3.54C358.1,625.63,357.4,625.55,356.69,625.52Z" transform="translate(90.67 -153.8)"/><path class="cls-4" d="M402.27,608.43c-3.65-.93-7-2.21-9.56-5-3.34-3.65-2.37-8,.83-11,2.89-2.69,6.43-3.16,10.08-2.43a20.21,20.21,0,0,1,11.36,6.4c2.42,2.7,3,6,1.57,8.51s-3.77,3.28-6.31,3.49S404.93,608.43,402.27,608.43Z" transform="translate(90.67 -153.8)"/><path class="cls-4" d="M403.31,611.17a19.48,19.48,0,0,1,7.71,3.24c4.06,3,4.14,8.12,0,10.88a18.19,18.19,0,0,1-18.66,1.45c-4.27-2-6.4-7.41-4.63-11.4,1.06-2.39,3.18-3.58,5.55-4.31C396.45,610,399.67,610.29,403.31,611.17Z" transform="translate(90.67 -153.8)"/><path class="cls-4" d="M379.76,623c4.42,1.44,9.09,3.92,12.11,8.77a4.85,4.85,0,0,1-1.27,6.86,14.25,14.25,0,0,1-8.54,2.78,17.75,17.75,0,0,1-11.38-3.11,12.79,12.79,0,0,1-3.1-3c-3-4.3-1.05-10,4.07-12C374,622.35,376.44,622.32,379.76,623Z" transform="translate(90.67 -153.8)"/><path class="cls-4" d="M390,571.22c4.19.9,7.38,2.28,9.95,4.82a11.08,11.08,0,0,1,1.92,2.6c1.45,2.79.62,5.47-2.56,7.25-5.33,3-11,4.12-17,2.28-4.6-1.41-7.54-6.09-6.56-10.46.65-2.91,2.69-4.63,5.35-5.68A16.56,16.56,0,0,1,390,571.22Z" transform="translate(90.67 -153.8)"/><path class="cls-4" d="M38.69,654.84a8.3,8.3,0,0,1-6.15-11.27c1.05-2.73,2.27-5.4,3.14-8.18a45.73,45.73,0,0,0,2-16.33c-.12-2.07-.41-4.17.5-6.17,1.42-3.12,3.8-5,7.24-5.15A7.83,7.83,0,0,1,53,612c.75,1.39,1.31,2.89,1.94,4.34,1.69,4,4.77,6.65,8,9.26a20,20,0,0,1,4.2,4.23,8.72,8.72,0,0,1-3.35,12.37A22.94,22.94,0,0,1,59.12,644a22.58,22.58,0,0,0-11.93,7.39,8.7,8.7,0,0,1-6.38,3.54C40.1,655,39.39,654.87,38.69,654.84Z" transform="translate(90.67 -153.8)"/><path class="cls-4" d="M84.27,637.75c-3.65-.93-7-2.21-9.56-5-3.35-3.65-2.37-8,.83-11,2.89-2.69,6.43-3.16,10.08-2.43A20.21,20.21,0,0,1,97,625.71c2.42,2.7,3,6,1.57,8.51s-3.77,3.28-6.31,3.49S86.93,637.75,84.27,637.75Z" transform="translate(90.67 -153.8)"/><path class="cls-4" d="M85.31,640.49A19.48,19.48,0,0,1,93,643.73c4.06,3,4.14,8.12,0,10.88a18.19,18.19,0,0,1-18.66,1.45c-4.28-2-6.4-7.41-4.63-11.4,1.06-2.39,3.18-3.58,5.55-4.31C78.45,639.35,81.67,639.61,85.31,640.49Z" transform="translate(90.67 -153.8)"/><path class="cls-4" d="M61.76,652.31c4.42,1.44,9.09,3.92,12.11,8.77a4.85,4.85,0,0,1-1.27,6.86,14.25,14.25,0,0,1-8.54,2.78,17.75,17.75,0,0,1-11.38-3.11,12.61,12.61,0,0,1-3.1-3c-3-4.3-1-10,4.07-12C56,651.67,58.44,651.64,61.76,652.31Z" transform="translate(90.67 -153.8)"/><path class="cls-4" d="M72,600.54c4.19.9,7.38,2.28,9.94,4.82a10.84,10.84,0,0,1,1.93,2.6c1.45,2.79.62,5.47-2.56,7.25-5.33,3-11,4.12-17,2.28-4.6-1.41-7.54-6.09-6.56-10.46.65-2.91,2.69-4.63,5.34-5.68A16.6,16.6,0,0,1,72,600.54Z" transform="translate(90.67 -153.8)"/><path class="cls-4" d="M445.75,384.16a8.3,8.3,0,0,1-6.15-11.28c1.06-2.72,2.28-5.39,3.14-8.17a46,46,0,0,0,2-16.33c-.12-2.07-.42-4.17.5-6.18,1.42-3.12,3.79-5,7.24-5.14a7.78,7.78,0,0,1,7.56,4.22c.75,1.39,1.32,2.88,1.94,4.34,1.7,3.94,4.78,6.65,8,9.26a19.81,19.81,0,0,1,4.2,4.23,8.72,8.72,0,0,1-3.35,12.37,23.53,23.53,0,0,1-4.65,1.83,22.5,22.5,0,0,0-11.93,7.38,8.71,8.71,0,0,1-6.38,3.55C447.17,384.27,446.46,384.19,445.75,384.16Z" transform="translate(90.67 -153.8)"/><path class="cls-4" d="M491.33,367.06c-3.65-.92-7-2.21-9.55-5-3.35-3.64-2.37-8,.83-11,2.88-2.69,6.43-3.16,10.07-2.43a20.24,20.24,0,0,1,11.37,6.4c2.41,2.7,3,6,1.57,8.51s-3.78,3.27-6.32,3.48S494,367.07,491.33,367.06Z" transform="translate(90.67 -153.8)"/><path class="cls-4" d="M492.37,369.81a19.28,19.28,0,0,1,7.71,3.24c4.07,2.95,4.15,8.12,0,10.88a18.19,18.19,0,0,1-18.66,1.45c-4.27-2-6.4-7.41-4.63-11.4,1.07-2.39,3.18-3.58,5.56-4.31C485.51,368.67,488.73,368.92,492.37,369.81Z" transform="translate(90.67 -153.8)"/><path class="cls-4" d="M468.82,381.63c4.42,1.44,9.1,3.92,12.12,8.77a4.87,4.87,0,0,1-1.27,6.86,14.35,14.35,0,0,1-8.55,2.78,17.76,17.76,0,0,1-11.38-3.11,13.16,13.16,0,0,1-3.1-3c-3-4.31-1-10,4.07-12C463.09,381,465.51,381,468.82,381.63Z" transform="translate(90.67 -153.8)"/><path class="cls-4" d="M479,329.86c4.19.9,7.38,2.28,9.95,4.82a10.91,10.91,0,0,1,1.93,2.6c1.45,2.78.62,5.47-2.57,7.25-5.32,3-11,4.11-17,2.28-4.59-1.41-7.54-6.09-6.56-10.47.65-2.9,2.69-4.62,5.35-5.67A16.46,16.46,0,0,1,479,329.86Z" transform="translate(90.67 -153.8)"/><path class="cls-4" d="M292.87,522.76a8.3,8.3,0,0,1-6.15-11.28c1-2.72,2.27-5.39,3.13-8.17a45.76,45.76,0,0,0,2-16.33c-.12-2.07-.41-4.18.5-6.18,1.42-3.12,3.8-5,7.24-5.14a7.81,7.81,0,0,1,7.57,4.22c.75,1.39,1.31,2.88,1.94,4.34,1.69,3.94,4.77,6.65,8,9.25a20,20,0,0,1,4.19,4.24,8.7,8.7,0,0,1-3.35,12.36,22.94,22.94,0,0,1-4.65,1.83,22.56,22.56,0,0,0-11.92,7.39,8.71,8.71,0,0,1-6.39,3.54C294.28,522.86,293.57,522.79,292.87,522.76Z" transform="translate(90.67 -153.8)"/><path class="cls-4" d="M338.45,505.66c-3.65-.92-7-2.21-9.56-5-3.35-3.64-2.37-8,.83-11,2.89-2.69,6.43-3.17,10.07-2.43a20.25,20.25,0,0,1,11.37,6.39c2.41,2.7,3,6,1.57,8.51s-3.78,3.28-6.32,3.49S341.1,505.66,338.45,505.66Z" transform="translate(90.67 -153.8)"/><path class="cls-4" d="M339.49,508.4a19.54,19.54,0,0,1,7.71,3.24c4.06,3,4.14,8.12,0,10.89A18.25,18.25,0,0,1,328.49,524c-4.27-2-6.4-7.41-4.62-11.41,1.06-2.39,3.18-3.57,5.55-4.31C332.62,507.27,335.84,507.52,339.49,508.4Z" transform="translate(90.67 -153.8)"/><path class="cls-4" d="M315.93,520.22c4.42,1.45,9.1,3.93,12.12,8.78a4.86,4.86,0,0,1-1.27,6.86,14.33,14.33,0,0,1-8.55,2.78,17.82,17.82,0,0,1-11.38-3.11,13,13,0,0,1-3.09-3c-3-4.3-1.05-10,4.06-12C310.2,519.59,312.62,519.55,315.93,520.22Z" transform="translate(90.67 -153.8)"/><path class="cls-4" d="M326.13,468.46c4.19.9,7.38,2.27,9.94,4.82a10.46,10.46,0,0,1,1.93,2.6c1.45,2.78.62,5.47-2.57,7.24-5.32,3-11,4.12-17,2.28-4.59-1.4-7.54-6.09-6.55-10.46.65-2.9,2.69-4.62,5.34-5.68A16.58,16.58,0,0,1,326.13,468.46Z" transform="translate(90.67 -153.8)"/></svg>