<svg id="Calque_1" data-name="Calque 1" xmlns="http://www.w3.org/2000/svg" viewBox="0 0 81.45 96.53"><defs><style>.cls-1{fill:#f0bf4a;}</style></defs><title>log</title><path class="cls-1" d="M69.83,44.9c1.4-.48,11.1-3.63,13.93.43,1.19,1.71,1,4.45-.15,6.32-2,3.26-5.6,2-10.09,5.36-.89.67-4.69,3.51-5.42,7.85-.88,5.26,3.26,9.86,5.89,12.78,4.14,4.59,6.27,4.28,11.78,8.9C89.11,89.35,93.47,93,96.27,99c4.43,9.41,2.19,18.68,1.41,21.91A25.61,25.61,0,0,1,93,131.63a24.5,24.5,0,0,1-12.64,8.18h-45a7,7,0,0,1-.11-6.46,6.86,6.86,0,0,1,4.7-3.34c-.23-2.66-.54-10.16,4.36-16.67,6.06-8.07,18.76-12.84,26.23-7.67,4.63,3.21,5.53,9,5.71,10.56,1,8.71-5.48,14.52-6.08,15a11.34,11.34,0,0,0,7-1c4.32-2.29,5.48-7,6-9.09a21.28,21.28,0,0,0-1.44-13.35C76.4,95.42,64.46,97.43,56.33,84A27,27,0,0,1,52,70.46c-.27-9.86,5.56-16.75,6.89-18.24A26,26,0,0,1,69.83,44.9Z" transform="translate(-34.47 -43.28)"/><ellipse class="cls-1" cx="71.69" cy="35.71" rx="9.76" ry="8.56"/></svg>