<svg id="Calque_1" data-name="Calque 1" xmlns="http://www.w3.org/2000/svg" viewBox="0 0 499.6 211.33"><defs><style>.cls-1{fill:#b99ecc;}.cls-2{fill:#f0bf4a;}</style></defs><title>logofinal</title><path class="cls-1" d="M219.45,137.17v77.05q0,8-3.81,12.11a12.63,12.63,0,0,1-9.67,4.1,12,12,0,0,1-9.52-4.2q-3.66-4.2-3.66-12V138q0-7.92,3.66-11.92a12.34,12.34,0,0,1,9.52-4,12.8,12.8,0,0,1,9.67,4Q219.45,130,219.45,137.17ZM226.09,87a10.92,10.92,0,0,1,5.37,1.47,10.24,10.24,0,0,1,4.1,4.1A11.09,11.09,0,0,1,237,98a10.27,10.27,0,0,1-3.23,8,11,11,0,0,1-7.71,2.93,11.33,11.33,0,0,1-7.67-2.93,10.07,10.07,0,0,1-3.37-8,11.35,11.35,0,0,1,11-11Z" transform="translate(-20.93 -19.1)"/><path class="cls-1" d="M335.66,178.18v35.45q0,8.4-3.81,12.6a12.93,12.93,0,0,1-10.06,4.2,12.54,12.54,0,0,1-9.81-4.2q-3.76-4.2-3.76-12.6V171.15a135.09,135.09,0,0,0-.69-15.62,16.85,16.85,0,0,0-3.71-9.13q-3-3.57-9.57-3.57-13.08,0-17.23,9t-4.15,25.78v36q0,8.31-3.76,12.55a12.61,12.61,0,0,1-9.92,4.25,12.79,12.79,0,0,1-9.91-4.25q-3.85-4.25-3.85-12.55V137.36q0-7.52,3.46-11.42A11.61,11.61,0,0,1,258,122a12.38,12.38,0,0,1,9.13,3.66q3.66,3.66,3.67,10.11v2.54a46.52,46.52,0,0,1,14.84-12.21,39.19,39.19,0,0,1,17.58-3.9q10,0,17.28,4a31.4,31.4,0,0,1,11.92,12.11,46.37,46.37,0,0,1,14.45-12.16,36.85,36.85,0,0,1,17.09-4q10.93,0,18.85,4.29a27.36,27.36,0,0,1,11.81,12.31q3.42,7.23,3.42,22.75v52q0,8.4-3.81,12.6a12.93,12.93,0,0,1-10.06,4.2,12.79,12.79,0,0,1-9.91-4.25q-3.86-4.25-3.85-12.55V168.81a102.2,102.2,0,0,0-.74-13.77,15.77,15.77,0,0,0-3.95-8.69q-3.23-3.53-9.77-3.52A17.85,17.85,0,0,0,346,146a21.16,21.16,0,0,0-7.37,8.4Q335.67,161.09,335.66,178.18Z" transform="translate(-20.93 -19.1)"/><path class="cls-1" d="M491.32,215.39a82.74,82.74,0,0,1-18.7,11.28,52.4,52.4,0,0,1-20.26,3.76,38.42,38.42,0,0,1-18-4.05,29.7,29.7,0,0,1-12-11,28.48,28.48,0,0,1-4.2-15,26.92,26.92,0,0,1,6.93-18.65Q432,174,444.16,171.35q2.54-.58,12.59-2.64T474,165q7.17-1.71,15.58-4.15-.49-10.55-4.25-15.48t-15.58-4.93q-10.15,0-15.28,2.83a24.78,24.78,0,0,0-8.79,8.5q-3.66,5.66-5.18,7.47c-1,1.2-3.17,1.81-6.49,1.81a11.3,11.3,0,0,1-7.76-2.89,9.35,9.35,0,0,1-3.28-7.37,22.55,22.55,0,0,1,5-13.67q5-6.65,15.53-10.94t26.27-4.29q17.58,0,27.64,4.15t14.21,13.13q4.14,9,4.15,23.83,0,9.38,0,15.92t-.15,14.55A53.57,53.57,0,0,0,518,209.09q2.49,8.16,2.49,10.5,0,4.09-3.85,7.47a12.93,12.93,0,0,1-8.74,3.37q-4.11,0-8.11-3.86A57.44,57.44,0,0,1,491.32,215.39Zm-1.75-38.57a135.64,135.64,0,0,1-17.05,4.54q-11.17,2.38-15.47,3.51a21.14,21.14,0,0,0-8.21,4.4q-3.9,3.27-3.9,9.13a13.51,13.51,0,0,0,4.59,10.3q4.59,4.25,12,4.25a31.28,31.28,0,0,0,14.6-3.47,23.12,23.12,0,0,0,9.81-8.93q3.62-6.06,3.62-19.93Z" transform="translate(-20.93 -19.1)"/><path class="cls-2" d="M97.72,22.61c3-1,24.1-7.89,30.25.93,2.59,3.72,2.12,9.68-.31,13.72-4.27,7.1-12.17,4.35-21.92,11.65C103.8,50.36,95.56,56.54,94,66c-1.93,11.43,7.08,21.43,12.78,27.76,9,10,13.63,9.3,25.57,19.33,7.27,6.1,16.73,14,22.81,27,9.62,20.43,4.77,40.56,3.08,47.58s-3.75,15.1-10.3,23.39c-9.4,11.91-21.9,16.24-27.44,17.77H22.81c-.23-.4-4-7.19-.24-14a14.9,14.9,0,0,1,10.21-7.25c-.52-5.78-1.18-22.07,9.45-36.2,13.17-17.52,40.76-27.89,57-16.66,10,7,12,19.64,12.4,22.92,2.22,18.93-11.91,31.54-13.21,32.66a24.61,24.61,0,0,0,15.31-2.25c9.4-5,11.91-15.22,13-19.73,3.16-12.86-1-24.19-3.12-29C112,132.32,86.06,136.7,68.41,107.43c-3-4.91-9-15.15-9.36-29.32-.59-21.4,12.08-36.36,15-39.6A56.36,56.36,0,0,1,97.72,22.61Z" transform="translate(-20.93 -19.1)"/><ellipse class="cls-2" cx="155.68" cy="77.55" rx="21.2" ry="18.58"/></svg>